<?xml version="1.0" standalone="no"?>
<!DOCTYPE svg PUBLIC "-//W3C//DTD SVG 20010904//EN"
 "http://www.w3.org/TR/2001/REC-SVG-20010904/DTD/svg10.dtd">
<svg version="1.0" xmlns="http://www.w3.org/2000/svg"
 width="128.000000pt" height="128.000000pt" viewBox="0 0 128.000000 128.000000"
 preserveAspectRatio="xMidYMid meet">
<metadata>
Created by potrace 1.14, written by Peter Selinger 2001-2017
</metadata>
<g transform="translate(0.000000,128.000000) scale(0.100000,-0.100000)"
fill="#000000" stroke="none">
<path d="M242 1206 l-37 -34 0 -471 0 -471 30 -30 c19 -18 46 -33 68 -37 33
-5 37 -3 37 16 0 11 -6 21 -12 22 -55 3 -76 21 -84 70 -5 27 -1 40 20 62 l25
27 376 0 375 0 0 -68 c0 -40 -5 -73 -12 -80 -9 -9 -69 -12 -210 -12 -191 0
-198 -1 -198 -20 0 -19 7 -20 195 -20 212 0 247 7 259 52 8 30 8 962 0 983
-16 42 -45 45 -429 45 l-365 0 -38 -34z m453 -161 c17 -9 38 -26 45 -39 9 -19
23 -25 62 -28 38 -4 57 -12 79 -35 58 -57 44 -154 -27 -188 -30 -14 -34 -20
-34 -55 l0 -40 -180 0 -180 0 0 40 c0 35 -4 41 -34 55 -36 17 -66 65 -66 105
0 66 68 127 132 118 22 -4 32 0 40 16 31 58 101 80 163 51z m123 -462 l-3 -38
-175 0 -175 0 -3 38 -3 37 181 0 181 0 -3 -37z"/>
<path d="M325 289 c-4 -6 -3 -15 2 -20 5 -5 142 -8 329 -7 276 3 319 5 319 18
0 13 -44 15 -322 18 -226 1 -324 -1 -328 -9z"/>
<path d="M382 133 c2 -50 7 -88 14 -90 6 -2 28 13 49 32 l37 36 36 -36 c20
-19 41 -34 46 -32 6 2 12 41 14 90 l3 87 -101 0 -101 0 3 -87z"/>
</g>
</svg>
