<?xml version="1.0" standalone="no"?>
<!DOCTYPE svg PUBLIC "-//W3C//DTD SVG 20010904//EN"
 "http://www.w3.org/TR/2001/REC-SVG-20010904/DTD/svg10.dtd">
<svg version="1.0" xmlns="http://www.w3.org/2000/svg"
 width="1030.000000pt" height="274.000000pt" viewBox="0 0 1030.000000 274.000000"
 preserveAspectRatio="xMidYMid meet">

<g transform="translate(0.000000,274.000000) scale(0.100000,-0.100000)"
fill="#0078AE" stroke="none">
<path d="M4846 2443 c-34 -10 -63 -29 -95 -62 l-46 -47 -43 30 c-35 25 -55 31
-113 34 -119 7 -205 -50 -243 -161 -20 -59 -20 -80 -1 -143 18 -62 61 -114
114 -139 22 -11 41 -25 41 -30 0 -6 -23 -118 -51 -250 -41 -196 -50 -251 -45
-299 14 -136 109 -259 234 -302 l36 -12 -60 -12 c-167 -35 -257 -131 -304
-327 -11 -45 -39 -126 -64 -180 -73 -164 -80 -223 -28 -263 47 -38 111 -17
159 52 14 21 29 38 32 38 4 0 20 -14 37 -31 61 -65 170 -96 305 -86 89 6 184
44 228 91 l23 24 52 -54 c54 -56 78 -64 129 -45 32 12 51 61 43 111 -3 22 -27
86 -52 143 -25 56 -59 152 -75 212 -18 64 -43 130 -61 158 -29 46 -128 127
-154 127 -32 0 -20 20 18 31 105 28 200 104 238 192 13 31 120 493 120 521 0
2 24 6 54 9 132 13 218 107 218 237 1 136 -96 234 -232 234 -36 0 -71 -2 -79
-4 -9 -3 -19 11 -30 44 -45 131 -174 198 -305 159z m191 -69 c50 -41 71 -78
81 -145 9 -60 10 -60 82 -34 84 31 194 -15 234 -99 21 -45 22 -121 2 -167 -31
-73 -123 -126 -204 -117 -30 4 -35 1 -44 -25 -9 -23 -15 -27 -33 -23 -13 3
-161 35 -330 71 -169 36 -311 67 -315 70 -4 2 -5 15 -3 29 4 21 -1 27 -43 45
-60 27 -81 45 -106 96 -31 60 -28 133 8 192 70 112 224 124 318 24 23 -23 32
-28 43 -20 7 6 13 16 13 21 0 19 55 80 89 99 28 15 51 19 103 16 57 -2 72 -7
105 -33z m-211 -584 c180 -39 331 -74 335 -78 11 -11 -2 -63 -17 -69 -14 -5
-644 126 -657 137 -7 6 0 80 8 80 1 0 150 -32 331 -70z m-3 -126 c219 -47 317
-71 317 -80 0 -38 -63 -294 -81 -328 -56 -109 -156 -170 -279 -171 -198 0
-334 100 -370 273 -10 47 -8 70 20 205 38 186 36 180 57 173 10 -3 161 -35
336 -72z m-87 -833 c83 -38 125 -135 104 -238 -14 -67 -47 -107 -107 -127 -63
-22 -101 -20 -153 7 -58 29 -90 88 -90 167 1 95 47 167 127 195 51 19 70 18
119 -4z"/>
<path d="M4602 1630 c-24 -10 -55 -71 -50 -98 5 -28 31 -19 40 13 22 83 98 67
98 -21 0 -31 4 -44 14 -44 30 0 36 91 8 128 -20 26 -75 37 -110 22z"/>
<path d="M4836 1549 c-24 -28 -35 -77 -20 -92 11 -10 34 5 34 22 0 27 30 61
54 61 33 0 46 -19 46 -68 0 -35 3 -43 17 -40 42 8 30 113 -15 137 -41 22 -88
13 -116 -20z"/>
<path d="M4550 1364 c0 -162 193 -249 316 -142 40 36 68 83 60 104 -10 26 -31
14 -51 -28 -27 -56 -91 -92 -149 -83 -82 12 -127 60 -134 142 -4 44 -8 53 -23
53 -16 0 -19 -8 -19 -46z"/>
<path d="M5429 1537 c-25 -16 -39 -37 -52 -77 -17 -50 -19 -101 -20 -590 -2
-505 -1 -537 17 -573 22 -45 44 -58 99 -60 61 -2 102 19 124 61 16 32 18 69
21 268 l3 231 97 6 c53 4 161 7 239 7 147 0 183 7 221 42 52 50 13 156 -66
178 -20 5 -137 10 -259 10 l-223 0 0 139 0 139 268 4 c231 3 271 5 299 21 18
9 37 26 43 36 16 31 12 83 -10 118 -34 57 -78 63 -445 63 -318 0 -322 0 -356
-23z"/>
<path d="M275 1525 c-22 -8 -45 -22 -52 -32 -37 -50 3 -258 183 -946 60 -231
80 -279 127 -307 94 -58 154 9 227 250 57 191 82 260 90 255 5 -3 30 -69 56
-148 85 -256 123 -330 186 -363 91 -47 149 35 212 298 20 84 70 292 110 463
88 367 98 419 90 461 -7 39 -26 57 -76 73 -31 10 -43 10 -72 -4 -55 -26 -50
-11 -238 -789 -6 -26 -13 -35 -19 -29 -6 6 -39 88 -74 182 -36 95 -74 188 -85
207 -47 74 -103 85 -156 28 -28 -30 -45 -70 -102 -245 -37 -115 -70 -209 -74
-209 -4 0 -16 44 -28 98 -12 53 -49 207 -81 342 -32 135 -59 253 -59 262 0 10
-9 42 -21 73 -29 79 -75 104 -144 80z"/>
<path d="M3900 1436 c-78 -17 -117 -41 -139 -84 -23 -46 -41 -128 -41 -191 0
-27 -3 -69 -6 -95 l-7 -46 -44 0 c-72 0 -112 -30 -113 -86 0 -53 20 -68 97
-74 l68 -5 5 -280 c3 -154 9 -287 13 -296 8 -16 33 -31 71 -43 33 -11 85 13
104 47 15 28 17 68 20 300 l3 267 38 0 c99 0 141 27 141 90 0 51 -26 69 -112
78 l-63 7 -3 83 c-3 76 -1 84 22 107 21 21 35 25 81 25 73 0 95 21 95 89 0 42
-4 53 -30 74 -16 14 -52 30 -80 36 -59 13 -49 13 -120 -3z"/>
<path d="M2950 1105 c-126 -35 -210 -135 -210 -250 0 -119 68 -182 254 -235
65 -18 132 -43 150 -55 40 -27 46 -68 15 -101 -51 -54 -144 -48 -272 17 -43
21 -86 39 -96 39 -30 0 -71 -56 -71 -96 0 -59 87 -137 185 -166 113 -33 267
-28 344 11 45 23 108 91 127 137 21 50 18 140 -6 188 -36 72 -76 94 -286 155
-121 35 -169 105 -110 160 43 40 100 39 193 -3 44 -20 95 -36 112 -36 38 0 81
38 81 72 0 27 -33 84 -63 109 -66 56 -242 83 -347 54z"/>
<path d="M1970 1036 c-162 -47 -254 -144 -290 -307 -20 -91 -10 -224 24 -292
61 -126 167 -181 351 -181 115 -1 164 16 234 79 l41 37 53 -56 c46 -49 58 -56
90 -56 27 0 45 7 64 26 38 38 29 100 -35 245 -28 64 -59 147 -67 185 -37 164
-107 260 -222 304 -70 27 -181 34 -243 16z m164 -200 c18 -8 46 -31 62 -51 24
-31 29 -50 32 -107 7 -116 -47 -209 -133 -228 -41 -9 -129 9 -169 36 -81 52
-84 234 -7 308 54 51 148 70 215 42z"/>
</g>
<g transform="translate(0.000000,274.000000) scale(0.100000,-0.100000)"
fill="#050505" stroke="none">
<path d="M8770 1116 c-76 -17 -135 -50 -190 -106 -89 -91 -125 -208 -118 -382
3 -90 8 -112 34 -169 18 -36 48 -83 69 -104 117 -116 393 -141 575 -52 104 51
142 136 85 192 -31 32 -84 33 -180 4 -98 -30 -216 -30 -272 -1 -41 22 -73 55
-73 78 0 9 61 13 228 16 255 3 276 9 317 78 28 49 27 166 -2 232 -47 104 -157
185 -292 214 -78 16 -108 16 -181 0z m173 -209 c37 -16 111 -93 102 -107 -10
-16 -325 -13 -325 3 0 29 62 87 108 101 60 19 76 19 115 3z"/>
<path d="M6790 1143 c-70 -36 -72 -45 -67 -433 3 -222 8 -358 16 -381 25 -78
101 -118 160 -83 55 32 64 74 69 309 3 157 8 217 19 238 35 68 153 91 212 42
16 -14 34 -40 40 -58 5 -18 12 -120 14 -227 3 -110 11 -210 17 -230 18 -51 53
-80 100 -80 63 0 86 14 103 62 21 59 29 253 17 427 -8 120 -14 153 -37 203
-43 97 -135 162 -260 183 -51 8 -133 -14 -187 -50 -33 -22 -37 -23 -42 -7 -21
65 -43 86 -104 97 -24 4 -46 0 -70 -12z"/>
<path d="M6401 1157 c-14 -6 -34 -28 -45 -47 -20 -33 -21 -54 -24 -345 -4
-367 3 -432 53 -482 25 -25 42 -33 68 -33 60 0 86 16 110 67 21 47 22 59 22
393 0 190 -4 362 -8 383 -14 65 -108 99 -176 64z"/>
<path d="M9465 1183 c-27 -7 -53 -31 -73 -68 -15 -26 -17 -77 -20 -355 -2
-182 1 -357 6 -397 15 -104 50 -143 128 -143 49 0 87 25 116 74 22 39 23 51
26 268 l3 227 41 36 c82 75 164 92 258 55 50 -20 113 -26 145 -14 21 9 45 56
45 92 0 71 -96 151 -204 172 -85 16 -161 6 -232 -30 l-55 -28 -10 27 c-16 45
-24 55 -60 73 -33 17 -72 21 -114 11z"/>
<path d="M6384 1516 c-28 -28 -34 -41 -34 -78 0 -122 122 -180 211 -100 81 73
13 212 -104 212 -31 0 -46 -7 -73 -34z"/>
<path d="M8199 1550 c-93 -26 -99 -44 -99 -300 l0 -210 -63 0 c-195 0 -328
-74 -395 -219 -21 -45 -27 -76 -30 -152 -9 -214 70 -346 246 -412 50 -19 78
-22 239 -22 178 0 182 0 207 24 14 14 30 41 36 60 6 22 10 250 10 579 0 575
-1 583 -47 625 -27 24 -72 35 -104 27z m-106 -759 c4 -4 6 -77 5 -162 l-3
-154 -57 -3 c-75 -4 -140 23 -163 68 -48 94 -20 215 59 251 32 15 53 18 96 13
30 -3 58 -9 63 -13z"/>
<path d="M5429 1537 c-25 -16 -39 -37 -52 -77 -17 -50 -19 -101 -20 -590 -2
-505 -1 -537 17 -573 22 -45 44 -58 99 -60 61 -2 102 19 124 61 16 32 18 69
21 268 l3 231 97 6 c53 4 161 7 239 7 147 0 183 7 221 42 52 50 13 156 -66
178 -20 5 -137 10 -259 10 l-223 0 0 139 0 139 268 4 c231 3 271 5 299 21 18
9 37 26 43 36 16 31 12 83 -10 118 -34 57 -78 63 -445 63 -318 0 -322 0 -356
-23z"/>
</g>
</svg>
